{
    "asset" : {
        "generator" : "Khronos glTF Blender I/O v3.3.32",
        "version" : "2.0"
    },
    "scene" : 0,
    "scenes" : [
        {
            "name" : "Scene",
            "nodes" : [
                0
            ]
        }
    ],
    "nodes" : [
        {
            "mesh" : 0,
            "name" : "RACHAO",
            "translation" : [
                20,
                -0.2756020426750183,
                -40
            ]
        }
    ],
    "materials" : [
        {
            "doubleSided" : true,
            "name" : "RACHAO",
            "pbrMetallicRoughness" : {
                "baseColorFactor" : [
                    0.16992919147014618,
                    0.045454394072294235,
                    0.01856081373989582,
                    1
                ],
                "metallicFactor" : 0,
                "roughnessFactor" : 0.5
            }
        }
    ],
    "meshes" : [
        {
            "name" : "Plane.001",
            "primitives" : [
                {
                    "attributes" : {
                        "POSITION" : 0,
                        "NORMAL" : 1,
                        "TEXCOORD_0" : 2
                    },
                    "indices" : 3,
                    "material" : 0
                }
            ]
        }
    ],
    "accessors" : [
        {
            "bufferView" : 0,
            "componentType" : 5126,
            "count" : 7047,
            "max" : [
                22.13435173034668,
                0,
                42.13918685913086
            ],
            "min" : [
                -22.13435173034668,
                0,
                -42.13918685913086
            ],
            "type" : "VEC3"
        },
        {
            "bufferView" : 1,
            "componentType" : 5126,
            "count" : 7047,
            "type" : "VEC3"
        },
        {
            "bufferView" : 2,
            "componentType" : 5126,
            "count" : 7047,
            "type" : "VEC2"
        },
        {
            "bufferView" : 3,
            "componentType" : 5123,
            "count" : 26136,
            "type" : "SCALAR"
        }
    ],
    "bufferViews" : [
        {
            "buffer" : 0,
            "byteLength" : 84564,
            "byteOffset" : 0,
            "target" : 34962
        },
        {
            "buffer" : 0,
            "byteLength" : 84564,
            "byteOffset" : 84564,
            "target" : 34962
        },
        {
            "buffer" : 0,
            "byteLength" : 56376,
            "byteOffset" : 169128,
            "target" : 34962
        },
        {
            "buffer" : 0,
            "byteLength" : 52272,
            "byteOffset" : 225504,
            "target" : 34963
        }
    ],
    "buffers" : [
        {
            "byteLength" : 277776,
            "uri" : "data:application/octet-stream;base64,"
        }
    ]
}
