{
    "asset" : {
        "generator" : "Khronos glTF Blender I/O v3.3.32",
        "version" : "2.0"
    },
    "scene" : 0,
    "scenes" : [
        {
            "name" : "Scene",
            "nodes" : [
                0
            ]
        }
    ],
    "nodes" : [
        {
            "mesh" : 0,
            "name" : "ESTACAS-CAPITEL"
        }
    ],
    "materials" : [
        {
            "name" : "CONCRETE",
            "pbrMetallicRoughness" : {
                "baseColorFactor" : [
                    0.11269500851631165,
                    0.11269500851631165,
                    0.11269500851631165,
                    1
                ],
                "metallicFactor" : 0,
                "roughnessFactor" : 0.5
            }
        }
    ],
    "meshes" : [
        {
            "name" : "Cube.005",
            "primitives" : [
                {
                    "attributes" : {
                        "POSITION" : 0,
                        "NORMAL" : 1,
                        "TEXCOORD_0" : 2
                    },
                    "indices" : 3,
                    "material" : 0
                }
            ]
        }
    ],
    "accessors" : [
        {
            "bufferView" : 0,
            "componentType" : 5126,
            "count" : 20664,
            "max" : [
                40.09980010986328,
                -0.800000011920929,
                0.10000009834766388
            ],
            "min" : [
                -0.10020146518945694,
                -10,
                -80.0999984741211
            ],
            "type" : "VEC3"
        },
        {
            "bufferView" : 1,
            "componentType" : 5126,
            "count" : 20664,
            "type" : "VEC3"
        },
        {
            "bufferView" : 2,
            "componentType" : 5126,
            "count" : 20664,
            "type" : "VEC2"
        },
        {
            "bufferView" : 3,
            "componentType" : 5123,
            "count" : 30996,
            "type" : "SCALAR"
        }
    ],
    "bufferViews" : [
        {
            "buffer" : 0,
            "byteLength" : 247968,
            "byteOffset" : 0,
            "target" : 34962
        },
        {
            "buffer" : 0,
            "byteLength" : 247968,
            "byteOffset" : 247968,
            "target" : 34962
        },
        {
            "buffer" : 0,
            "byteLength" : 165312,
            "byteOffset" : 495936,
            "target" : 34962
        },
        {
            "buffer" : 0,
            "byteLength" : 61992,
            "byteOffset" : 661248,
            "target" : 34963
        }
    ],
    "buffers" : [
        {
            "byteLength" : 723240,
            "uri" : "data:application/octet-stream;base64,"
        }
    ]
}
