{
    "asset" : {
        "generator" : "Khronos glTF Blender I/O v3.3.32",
        "version" : "2.0"
    },
    "scene" : 0,
    "scenes" : [
        {
            "name" : "Scene",
            "nodes" : [
                0
            ]
        }
    ],
    "nodes" : [
        {
            "mesh" : 0,
            "name" : "CALHA-PLANA"
        }
    ],
    "materials" : [
        {
            "name" : "CONCRETE",
            "pbrMetallicRoughness" : {
                "baseColorFactor" : [
                    0.11269500851631165,
                    0.11269500851631165,
                    0.11269500851631165,
                    1
                ],
                "metallicFactor" : 0,
                "roughnessFactor" : 0.5
            }
        }
    ],
    "meshes" : [
        {
            "name" : "20/37034",
            "primitives" : [
                {
                    "attributes" : {
                        "POSITION" : 0,
                        "NORMAL" : 1,
                        "TEXCOORD_0" : 2
                    },
                    "indices" : 3,
                    "material" : 0
                }
            ]
        }
    ],
    "accessors" : [
        {
            "bufferView" : 0,
            "componentType" : 5126,
            "count" : 5831,
            "max" : [
                40.3646354675293,
                15.759411811828613,
                -1.3963617086410522
            ],
            "min" : [
                -0.36463695764541626,
                15.100007057189941,
                -78.5344009399414
            ],
            "type" : "VEC3"
        },
        {
            "bufferView" : 1,
            "componentType" : 5126,
            "count" : 5831,
            "type" : "VEC3"
        },
        {
            "bufferView" : 2,
            "componentType" : 5126,
            "count" : 5831,
            "type" : "VEC2"
        },
        {
            "bufferView" : 3,
            "componentType" : 5123,
            "count" : 7920,
            "type" : "SCALAR"
        }
    ],
    "bufferViews" : [
        {
            "buffer" : 0,
            "byteLength" : 69972,
            "byteOffset" : 0,
            "target" : 34962
        },
        {
            "buffer" : 0,
            "byteLength" : 69972,
            "byteOffset" : 69972,
            "target" : 34962
        },
        {
            "buffer" : 0,
            "byteLength" : 46648,
            "byteOffset" : 139944,
            "target" : 34962
        },
        {
            "buffer" : 0,
            "byteLength" : 15840,
            "byteOffset" : 186592,
            "target" : 34963
        }
    ],
    "buffers" : [
        {
            "byteLength" : 202432,
            "uri" : "data:application/octet-stream;base64,"
        }
    ]
}
