{
    "asset" : {
        "generator" : "Khronos glTF Blender I/O v3.3.32",
        "version" : "2.0"
    },
    "scene" : 0,
    "scenes" : [
        {
            "name" : "Scene",
            "nodes" : [
                0
            ]
        }
    ],
    "nodes" : [
        {
            "mesh" : 0,
            "name" : "BALDRAME",
            "rotation" : [
                0,
                0.7071068286895752,
                0,
                0.7071067094802856
            ]
        }
    ],
    "materials" : [
        {
            "name" : "CONCRETE",
            "pbrMetallicRoughness" : {
                "baseColorFactor" : [
                    0.11269500851631165,
                    0.11269500851631165,
                    0.11269500851631165,
                    1
                ],
                "metallicFactor" : 0,
                "roughnessFactor" : 0.5
            }
        }
    ],
    "meshes" : [
        {
            "name" : "20/46446",
            "primitives" : [
                {
                    "attributes" : {
                        "POSITION" : 0,
                        "NORMAL" : 1,
                        "TEXCOORD_0" : 2
                    },
                    "indices" : 3,
                    "material" : 0
                }
            ]
        }
    ],
    "accessors" : [
        {
            "bufferView" : 0,
            "componentType" : 5126,
            "count" : 1904,
            "max" : [
                80.76675415039062,
                1.4000000953674316,
                40.877017974853516
            ],
            "min" : [
                -0.7687169313430786,
                -0.30000001192092896,
                -0.8641738891601562
            ],
            "type" : "VEC3"
        },
        {
            "bufferView" : 1,
            "componentType" : 5126,
            "count" : 1904,
            "type" : "VEC3"
        },
        {
            "bufferView" : 2,
            "componentType" : 5126,
            "count" : 1904,
            "type" : "VEC2"
        },
        {
            "bufferView" : 3,
            "componentType" : 5123,
            "count" : 2832,
            "type" : "SCALAR"
        }
    ],
    "bufferViews" : [
        {
            "buffer" : 0,
            "byteLength" : 22848,
            "byteOffset" : 0,
            "target" : 34962
        },
        {
            "buffer" : 0,
            "byteLength" : 22848,
            "byteOffset" : 22848,
            "target" : 34962
        },
        {
            "buffer" : 0,
            "byteLength" : 15232,
            "byteOffset" : 45696,
            "target" : 34962
        },
        {
            "buffer" : 0,
            "byteLength" : 5664,
            "byteOffset" : 60928,
            "target" : 34963
        }
    ],
    "buffers" : [
        {
            "byteLength" : 66592,
            "uri" : "data:application/octet-stream;base64,"
        }
    ]
}
