{
    "asset" : {
        "generator" : "Khronos glTF Blender I/O v3.3.32",
        "version" : "2.0"
    },
    "scene" : 0,
    "scenes" : [
        {
            "name" : "Scene",
            "nodes" : [
                0
            ]
        }
    ],
    "nodes" : [
        {
            "mesh" : 0,
            "name" : "CALHAS"
        }
    ],
    "materials" : [
        {
            "name" : "CONCRETE",
            "pbrMetallicRoughness" : {
                "baseColorFactor" : [
                    0.11269500851631165,
                    0.11269500851631165,
                    0.11269500851631165,
                    1
                ],
                "metallicFactor" : 0,
                "roughnessFactor" : 0.5
            }
        }
    ],
    "meshes" : [
        {
            "name" : "20/39400",
            "primitives" : [
                {
                    "attributes" : {
                        "POSITION" : 0,
                        "NORMAL" : 1,
                        "TEXCOORD_0" : 2
                    },
                    "indices" : 3,
                    "material" : 0
                }
            ]
        }
    ],
    "accessors" : [
        {
            "bufferView" : 0,
            "componentType" : 5126,
            "count" : 12693,
            "max" : [
                40.3597412109375,
                15.50999927520752,
                0.29500001668930054
            ],
            "min" : [
                -0.3597393035888672,
                14.499996185302734,
                -80.2500228881836
            ],
            "type" : "VEC3"
        },
        {
            "bufferView" : 1,
            "componentType" : 5126,
            "count" : 12693,
            "type" : "VEC3"
        },
        {
            "bufferView" : 2,
            "componentType" : 5126,
            "count" : 12693,
            "type" : "VEC2"
        },
        {
            "bufferView" : 3,
            "componentType" : 5123,
            "count" : 16128,
            "type" : "SCALAR"
        }
    ],
    "bufferViews" : [
        {
            "buffer" : 0,
            "byteLength" : 152316,
            "byteOffset" : 0,
            "target" : 34962
        },
        {
            "buffer" : 0,
            "byteLength" : 152316,
            "byteOffset" : 152316,
            "target" : 34962
        },
        {
            "buffer" : 0,
            "byteLength" : 101544,
            "byteOffset" : 304632,
            "target" : 34962
        },
        {
            "buffer" : 0,
            "byteLength" : 32256,
            "byteOffset" : 406176,
            "target" : 34963
        }
    ],
    "buffers" : [
        {
            "byteLength" : 438432,
            "uri" : "data:application/octet-stream;base64,"
        }
    ]
}
